 <svg
 xmlns="http://www.w3.org/2000/svg"
 viewBox="0 0 512 512"
 fill="none"
 stroke="currentColor"
 strokeWidth="2"
 strokeLinecap="round"
 strokeLinejoin="round"
 className="lucide lucide-panels-top-left mr-2 w-6 h-6"
>
<g transform="translate(0.000000,512.000000) scale(0.100000,-0.100000)"
fill="#000000" stroke="none">
<path d="M1949 4525 c-114 -18 -194 -39 -309 -82 -94 -35 -210 -89 -210 -98 0
-2 30 9 68 24 253 108 708 150 1037 96 49 -8 91 -13 92 -11 7 6 -162 56 -240
71 -97 18 -319 18 -438 0z"/>
<path d="M3037 4241 l-68 -6 79 -58 c44 -32 110 -88 146 -125 l66 -67 0 133 0
132 -77 -2 c-43 -1 -109 -4 -146 -7z"/>
<path d="M1255 4097 c-196 -103 -326 -236 -460 -472 -40 -70 -27 -55 43 50
107 160 231 278 426 407 48 32 84 58 80 58 -5 0 -45 -20 -89 -43z"/>
<path d="M2182 4079 c-192 -19 -421 -102 -570 -208 -172 -122 -419 -403 -505
-575 -85 -168 -118 -336 -98 -489 30 -222 132 -375 342 -514 104 -68 346 -189
446 -222 74 -25 156 -38 133 -22 -11 8 -3 11 36 11 28 0 113 2 190 5 176 6
119 -11 -76 -22 -98 -6 -121 -9 -85 -13 l50 -5 5 -122 c4 -110 7 -125 28 -145
l22 -22 0 57 c0 48 4 62 25 82 13 14 36 25 50 25 59 0 235 43 317 78 134 56
130 52 117 150 -7 45 -16 82 -20 82 -4 0 -29 -11 -56 -24 -319 -159 -747 -114
-1041 111 -342 262 -444 692 -251 1063 95 183 275 333 446 371 l52 12 -15 28
c-7 15 -14 45 -14 66 0 37 3 40 68 78 l67 38 91 -11 c105 -13 205 -42 288 -83
52 -26 68 -29 154 -29 118 0 202 -20 310 -72 100 -49 218 -155 282 -253 l42
-65 97 0 c106 0 141 6 141 25 0 6 -31 59 -69 116 -244 370 -583 539 -999 498z"/>
<path d="M1325 3923 c-140 -109 -312 -314 -391 -468 -99 -190 -138 -360 -139
-595 0 -177 13 -246 69 -373 103 -233 389 -474 687 -578 l66 -23 6 -90 c15
-216 103 -390 267 -523 84 -69 209 -130 295 -146 38 -7 70 -18 72 -24 5 -13
-171 -73 -317 -107 -194 -46 -260 -51 -698 -51 -227 0 -396 -3 -377 -7 188
-39 643 -88 819 -88 658 0 1209 245 1538 684 l38 49 -30 18 c-16 10 -48 28
-71 40 l-43 21 -19 -28 c-11 -16 -51 -59 -88 -96 -151 -148 -356 -230 -577
-229 -199 0 -357 64 -489 199 -119 121 -170 245 -180 436 l-6 118 -30 11
c-139 48 -410 214 -523 320 -136 127 -226 303 -244 479 -17 163 20 389 86 525
89 185 257 339 504 463 47 24 79 45 72 47 -25 9 -200 -49 -310 -103 -92 -44
-126 -68 -180 -121 -37 -37 -62 -60 -56 -52 60 81 148 180 223 252 51 48 91
87 89 87 -2 0 -30 -21 -63 -47z"/>
<path d="M4351 3897 c-59 -64 -177 -121 -301 -148 -76 -16 -148 -21 -368 -26
-228 -5 -272 -8 -268 -20 17 -43 40 -136 50 -202 l12 -76 19 35 c42 80 147
218 170 222 20 4 17 -2 -25 -56 -26 -34 -105 -146 -175 -251 -71 -104 -137
-200 -148 -212 l-20 -23 135 0 135 0 27 64 c43 100 121 211 179 255 62 47 97
61 237 97 118 30 251 88 311 135 60 48 80 95 77 182 l-3 72 -44 -48z"/>
<path d="M1810 3753 c-19 -2 -39 -8 -43 -12 -4 -4 43 -38 105 -75 62 -36 139
-89 171 -116 l59 -50 -79 0 c-150 0 -258 -45 -351 -144 -184 -199 -172 -488
29 -687 69 -68 194 -140 269 -154 31 -6 29 -4 -19 21 -245 125 -313 466 -142
711 93 132 221 204 366 206 84 1 114 -9 183 -60 18 -14 35 -23 36 -22 2 2 0
44 -3 93 l-6 88 -53 49 c-59 54 -166 110 -256 133 -62 17 -209 27 -266 19z"/>
<path d="M2820 2408 l0 -298 160 0 160 0 0 209 0 208 307 7 c293 7 307 7 332
-12 21 -15 44 -48 57 -80 1 -1 59 5 130 13 209 26 195 22 192 53 -3 27 -2 27
52 24 30 -2 88 0 128 3 l72 7 0 85 0 86 -795 -4 -795 -4 0 -297z"/>
<path d="M630 2077 c0 -35 150 -347 191 -397 14 -17 12 -10 -6 20 -46 79 -103
196 -141 287 -35 85 -44 103 -44 90z"/>
<path d="M4315 1763 c-103 -242 -303 -522 -478 -673 -186 -160 -472 -326 -879
-510 -53 -24 -96 -45 -95 -47 4 -3 402 149 497 191 47 21 117 55 157 75 40 21
70 34 67 30 -2 -4 13 -5 33 -2 43 7 149 73 146 91 -2 7 -4 18 -5 25 -2 6 5 11
14 11 10 -1 16 2 13 6 -2 3 32 39 76 78 214 192 368 412 451 647 24 65 43 145
36 145 -2 0 -17 -30 -33 -67z"/>
<path d="M855 1625 c65 -106 236 -298 335 -375 25 -19 -6 14 -68 74 -62 60
-147 155 -189 210 -80 107 -108 140 -78 91z"/>
<path d="M1240 1216 c0 -2 8 -10 18 -17 15 -13 16 -12 3 4 -13 16 -21 21 -21
13z"/>
<path d="M1310 1166 c0 -3 9 -10 20 -16 11 -6 20 -8 20 -6 0 3 -9 10 -20 16
-11 6 -20 8 -20 6z"/>
</g>
</svg>