<?xml version="1.0" standalone="no"?>
<!DOCTYPE svg PUBLIC "-//W3C//DTD SVG 20010904//EN"
 "http://www.w3.org/TR/2001/REC-SVG-20010904/DTD/svg10.dtd">
<svg version="1.0" xmlns="http://www.w3.org/2000/svg"
 width="24.000000pt" height="24.000000pt" viewBox="0 0 24.000000 24.000000"
 preserveAspectRatio="xMidYMid meet">

<g transform="translate(0.000000,24.000000) scale(0.100000,-0.100000)"
fill="#000000" stroke="none">
<path d="M34 197 c-3 -8 -4 -47 -2 -88 l3 -74 85 0 85 0 0 85 0 85 -83 3 c-63
2 -84 0 -88 -11z m146 -82 l0 -65 -60 0 -60 0 0 65 0 65 60 0 60 0 0 -65z"/>
<path d="M90 135 c-28 -29 -19 -46 10 -20 19 17 21 17 40 0 29 -26 38 -9 10
20 -13 14 -26 25 -30 25 -4 0 -17 -11 -30 -25z"/>
</g>
</svg>
